Coordinates
version=1
nRows=14
nColumns=40
inDegrees=yes

Units are S.I. units (second, meters, Newtons, ...)
Angles are in degrees.

endheader
time	pelvis_tilt	pelvis_list	pelvis_rotation	pelvis_tx	pelvis_ty	pelvis_tz	hip_flexion_r	hip_adduction_r	hip_rotation_r	knee_angle_r	knee_angle_r_beta	ankle_angle_r	subtalar_angle_r	mtp_angle_r	hip_flexion_l	hip_adduction_l	hip_rotation_l	knee_angle_l	knee_angle_l_beta	ankle_angle_l	subtalar_angle_l	mtp_angle_l	lumbar_extension	lumbar_bending	lumbar_rotation	arm_flex_r	arm_add_r	arm_rot_r	elbow_flex_r	pro_sup_r	wrist_flex_r	wrist_dev_r	arm_flex_l	arm_add_l	arm_rot_l	elbow_flex_l	pro_sup_l	wrist_flex_l	wrist_dev_l
      2.63314286	     -4.27303599	     -4.47280051	     -2.36601631	      0.74567552	      0.93241218	      0.44067452	     32.01219035	     -3.05567231	     -5.81555652	     51.72014771	     51.72014771	      3.84028736	    -14.12805531	      1.64382450	     14.16291815	     -4.76321207	     -6.45131839	     20.88966429	     20.88966429	     13.18048906	    -10.59146268	     -2.69532579	    -10.54125169	      5.32419161	      0.70046604	      0.59768608	    -13.95907556	      0.76144251	     28.78190218	     46.49745034	      0.00000000	      0.00000000	      6.02141912	    -16.08002471	     -6.84268633	     58.80897207	     46.22047210	      0.00000000	      0.00000000
      2.64628571	     -4.27445893	     -4.38438289	     -2.73077840	      0.74468592	      0.93263413	      0.44125273	     31.90473832	     -2.98038810	     -6.00252944	     48.26511834	     48.26511834	      3.24609256	    -13.35576535	     -0.53596362	     13.42323240	     -4.69639525	     -6.80795579	     20.35281677	     20.35281677	     13.19331541	    -10.59588610	     -3.25972787	    -10.69226113	      5.26999478	      0.57973628	     -0.32211915	    -13.95033504	     -1.02777666	     26.84756629	     46.68111637	      0.00000000	      0.00000000	      5.97983230	    -16.40341239	     -8.03793808	     62.19352580	     46.43568460	      0.00000000	      0.00000000
      2.65942857	     -4.47195622	     -4.35962262	     -3.04788561	      0.74360198	      0.93250574	      0.44191489	     31.94057753	     -2.81701090	     -6.31929749	     44.73005538	     44.73005538	      3.41802667	    -12.19928362	     -0.34356930	     12.99809875	     -4.70090526	     -7.04716746	     19.99129681	     19.99129681	     13.44872952	    -10.57633010	     -3.30474231	    -10.54428120	      5.38488641	      0.53898429	     -1.74262161	    -14.25099811	     -1.15377282	     26.20168750	     46.70280910	      0.00000000	      0.00000000	      6.77119561	    -16.82657817	     -8.37768118	     63.10232980	     46.48608662	      0.00000000	      0.00000000
      2.67257143	     -4.60337103	     -4.28512864	     -3.39936292	      0.74259308	      0.93237416	      0.44273095	     31.76666125	     -2.68746974	     -6.74475680	     40.99041407	     40.99041407	      3.55976896	    -10.81129286	     -0.23262629	     12.48985452	     -4.66336107	     -7.34099604	     19.62403071	     19.62403071	     13.69643469	    -10.54573023	     -3.38727129	    -10.50160804	      5.40049136	      0.68996181	     -3.18624173	    -14.53472257	     -1.33658898	     25.60546799	     46.72677205	      0.00000000	      0.00000000	      7.55414846	    -17.14431616	     -8.74108457	     64.46597622	     46.54523077	      0.00000000	      0.00000000
      2.68571429	     -4.61131276	     -4.12778218	     -3.76600739	      0.74175749	      0.93226205	      0.44364122	     31.32405920	     -2.64860383	     -7.32791919	     37.12806267	     37.12806267	      3.68391475	     -9.06271399	     -0.49309287	     11.82507344	     -4.53546685	     -7.70185901	     19.23311379	     19.23311379	     13.89709220	    -10.49160635	     -3.57425168	    -10.65522753	      5.28937370	      1.05724048	     -4.70032440	    -14.77606619	     -1.79949126	     25.18689201	     46.76263742	      0.00000000	      0.00000000	      8.18872342	    -17.33120493	     -9.21435925	     66.78432858	     46.63312381	      0.00000000	      0.00000000
      2.69885714	     -4.75131945	     -4.06633087	     -4.07468589	      0.74099710	      0.93193333	      0.44463539	     30.85505677	     -2.43294324	     -7.96462928	     33.13243886	     33.13243886	      3.68716551	     -7.36646940	     -0.42292357	     11.32987707	     -4.50345561	     -7.88341135	     18.88805881	     18.88805881	     14.09774761	    -10.48383826	     -3.78062990	    -10.64605266	      5.35076561	      1.05734211	     -6.03822222	    -14.97703918	     -2.24233245	     24.94468458	     46.79206512	      0.00000000	      0.00000000	      8.62865418	    -17.59199260	     -9.63772196	     68.60894412	     46.70802866	      0.00000000	      0.00000000
      2.71200000	     -4.96941764	     -3.89857852	     -4.41157617	      0.74042438	      0.93132350	      0.44588491	     30.43148324	     -2.24481495	     -8.61638739	     29.28608411	     29.28608411	      3.67318904	     -5.79373278	     -0.04619158	     10.92667959	     -4.38552583	     -8.19214130	     18.57866812	     18.57866812	     14.32733989	    -10.54284972	     -3.97000328	    -10.37623227	      5.22448396	      1.09793740	     -7.24953993	    -15.01111839	     -2.55925893	     24.76839977	     46.81041792	      0.00000000	      0.00000000	      9.12932965	    -17.94416730	    -10.06404397	     70.11174852	     46.77464049	      0.00000000	      0.00000000
      2.72514286	     -4.90806730	     -3.70336443	     -4.72919914	      0.74020363	      0.93094557	      0.44712565	     29.64225402	     -2.15834735	     -9.53969316	     25.68717211	     25.68717211	      3.76695899	     -3.52909250	      0.29606628	     10.16104751	     -4.20621411	     -8.51419791	     18.19598023	     18.19598023	     14.51542679	    -10.50640109	     -4.35865049	    -10.55397334	      5.07420045	      1.30424246	     -8.61139664	    -15.07523398	     -3.29715640	     25.00516018	     46.83941834	      0.00000000	      0.00000000	      9.43753740	    -18.06778583	    -10.72991179	     72.70677473	     46.88417103	      0.00000000	      0.00000000
      2.73828571	     -4.97905498	     -3.47376434	     -4.99419875	      0.74013651	      0.93024769	      0.44845580	     29.05083978	     -2.07703168	    -10.45228065	     22.55815274	     22.55815274	      3.88969178	     -1.44456920	      1.17967987	      9.52827834	     -3.99240945	     -8.77423973	     17.77522959	     17.77522959	     14.60993845	    -10.50587639	     -4.95807671	    -10.49987136	      4.89691951	      1.20345186	     -9.88252223	    -15.03848067	     -4.49134123	     25.69454540	     46.87820037	      0.00000000	      0.00000000	      9.37906936	    -18.18434859	    -11.62080228	     75.35263103	     47.02124117	      0.00000000	      0.00000000
      2.75142857	     -5.04130705	     -3.31946040	     -5.24444854	      0.74029493	      0.92950307	      0.44998370	     28.47725715	     -1.87038617	    -11.23114430	     19.92894631	     19.92894631	      4.20568149	      0.31483467	      3.04387542	      8.88764632	     -3.85923439	     -8.93405100	     17.38532774	     17.38532774	     14.61974179	    -10.67093137	     -5.74198619	    -10.42679090	      4.82494634	      1.07584817	    -10.96075916	    -14.88414766	     -6.25517113	     26.38111237	     46.94265955	      0.00000000	      0.00000000	      9.36673983	    -18.22754659	    -12.64104691	     77.50935502	     47.19036813	      0.00000000	      0.00000000
      2.76457143	     -5.03985726	     -3.17083516	     -5.48778405	      0.74076811	      0.92882401	      0.45166742	     27.82610948	     -1.62905118	    -11.85359779	     17.70786891	     17.70786891	      4.08521465	      1.60877309	      3.86178693	      8.13978744	     -3.73159896	     -9.16254602	     16.99407614	     16.99407614	     14.91054469	    -10.62774478	     -5.92952767	    -10.32507875	      4.76449967	      1.31103774	    -11.88205643	    -14.76476102	     -6.55257553	     26.17832246	     46.95612044	      0.00000000	      0.00000000	      9.91145582	    -18.18097481	    -12.94806923	     78.66288413	     47.24883565	      0.00000000	      0.00000000
      2.77771429	     -5.02753576	     -2.98452555	     -5.69384762	      0.74150812	      0.92804751	      0.45337553	     27.29227778	     -1.52775450	    -12.58443450	     16.21182186	     16.21182186	      4.06723787	      2.94866772	      4.72650916	      7.32854444	     -3.55792414	     -9.41531359	     16.51145297	     16.51145297	     15.15360258	    -10.47076663	     -6.27761591	    -10.24114886	      4.65897967	      1.43066958	    -12.75280582	    -14.61000665	     -7.13444197	     26.36954994	     46.96855277	      0.00000000	      0.00000000	     10.11253592	    -18.07080376	    -13.48349823	     80.28996503	     47.33866818	      0.00000000	      0.00000000
      2.79085714	     -5.12993845	     -2.85135174	     -5.87935127	      0.74244126	      0.92706694	      0.45529238	     26.90632686	     -1.32723579	    -12.92011462	     15.17305838	     15.17305838	      3.82787122	      3.50170197	      5.08661410	      6.67569338	     -3.45992005	     -9.56226008	     16.12923029	     16.12923029	     15.47390319	    -10.38851019	     -6.41229877	     -9.92273408	      4.65474846	      1.49253957	    -13.38554869	    -14.44537564	     -7.29010417	     26.29329455	     46.97247900	      0.00000000	      0.00000000	     10.38349756	    -18.01004410	    -13.77173440	     81.12979457	     47.38149004	      0.00000000	      0.00000000
      2.80400000	     -5.02062553	     -2.78634851	     -6.05890755	      0.74380267	      0.92637574	      0.45732950	     26.32288265	     -1.17827204	    -13.46066812	     14.65643523	     14.65643523	      3.56637634	      4.35481347	      4.94575063	      5.64502002	     -3.41037147	     -9.82331097	     15.53432070	     15.53432070	     15.75506596	    -10.08707466	     -6.71270835	     -9.88938352	      4.66506796	      1.45147226	    -13.94776877	    -14.26571674	     -8.03433224	     26.80105297	     46.98049360	      0.00000000	      0.00000000	     10.13504217	    -17.68353499	    -14.72615311	     83.11985062	     47.50830740	      0.00000000	      0.00000000
